<svg width="0" height="0" class="hidden">
    <symbol xmlns="http://www.w3.org/2000/svg" viewBox="0 0 78 16" id="arrow">
        <path d="M0.292895 8.36434C-0.0976291 7.97382 -0.0976292 7.34065 0.292895 6.95013L6.65686 0.586165C7.04738 0.195641 7.68054 0.195641 8.07107 0.586165C8.46159 0.976689 8.46159 1.60985 8.07107 2.00038L2.41422 7.65723L8.07107 13.3141C8.46159 13.7046 8.46159 14.3378 8.07107 14.7283C7.68055 15.1188 7.04738 15.1188 6.65686 14.7283L0.292895 8.36434ZM78 7.65723L78 8.65723L1 8.65723L1 7.65723L1 6.65723L78 6.65723L78 7.65723Z" fill="currentColor"/>
    </symbol>
    <symbol xmlns="http://www.w3.org/2000/svg" id="burger" viewBox="0 0 39 13" fill="none">
        <line x1="39" y1="0.5" x2="4.37114e-08" y2="0.500003" stroke="white"/>
        <line x1="39" y1="6.5" x2="10" y2="6.5" stroke="white"/>
        <line x1="39" y1="12.5" x2="20" y2="12.5" stroke="white"/>
    </symbol>
    <symbol  xmlns="http://www.w3.org/2000/svg" viewBox="0 0 18 13" id="check">
        <path d="M6.5501 12.9996L0.850098 7.29961L2.2751 5.87461L6.5501 10.1496L15.7251 0.974609L17.1501 2.39961L6.5501 12.9996Z" fill="currentColor"/>
    </symbol>
    <symbol  xmlns="http://www.w3.org/2000/svg" viewBox="0 0 24 24" id="chevron" fill="none">
        <path d="M6 9L12 15L18 9" stroke="currentColor" stroke-width="2" stroke-linecap="round" stroke-linejoin="round"/>
    </symbol>
    <symbol xmlns="http://www.w3.org/2000/svg" viewBox="0 0 20 20" id="close">
        <path d="M2.06634 19.9163L0.0830078 17.933L8.01634 9.99967L0.0830078 2.06634L2.06634 0.0830078L9.99967 8.01634L17.933 0.0830078L19.9163 2.06634L11.983 9.99967L19.9163 17.933L17.933 19.9163L9.99967 11.983L2.06634 19.9163Z" fill="currentColor"/>
    </symbol>
    <symbol  xmlns="http://www.w3.org/2000/svg" viewBox="0 0 21 20" id="telegram">
        <path fill-rule="evenodd" clip-rule="evenodd" d="M10.5 0C4.9775 0 0.5 4.4775 0.5 10C0.5 15.5225 4.9775 20 10.5 20C16.0225 20 20.5 15.5225 20.5 10C20.5 4.4775 16.0225 0 10.5 0ZM15.135 6.80083C14.985 8.38167 14.3333 12.2192 14.0025 13.99C13.8625 14.74 13.5858 14.9908 13.3192 15.015C12.7383 15.0683 12.2975 14.6308 11.735 14.2625C10.855 13.6858 10.3575 13.3267 9.50333 12.7633C8.51583 12.1125 9.15583 11.755 9.71833 11.1708C9.86583 11.0175 12.4242 8.69 12.4742 8.47917C12.48 8.4525 12.4867 8.35417 12.4275 8.3025C12.3683 8.25083 12.2825 8.26833 12.2208 8.2825C12.1325 8.3025 10.7267 9.23167 8.0025 11.07C7.60333 11.3442 7.24167 11.4775 6.9175 11.4708C6.56083 11.4633 5.87417 11.2692 5.36333 11.1025C4.7375 10.8992 4.23917 10.7908 4.2825 10.4458C4.305 10.2658 4.5525 10.0817 5.02583 9.89333C7.94083 8.62333 9.885 7.78583 10.8575 7.38083C13.635 6.22583 14.2117 6.025 14.5883 6.01833C15.06 6.01167 15.1733 6.40083 15.135 6.80083Z" fill="currentColor"/>
    </symbol>
    <symbol  xmlns="http://www.w3.org/2000/svg" viewBox="0 0 21 20" id="vk">
        <path d="M19.0967 1.40333C17.6933 0 15.4342 0 10.9167 0H10.0833C5.56583 0 3.30667 0 1.90333 1.40333C0.5 2.80667 0.5 5.06583 0.5 9.58333V10.4167C0.5 14.9342 0.5 17.1925 1.90333 18.5967C3.30667 20.0008 5.56583 20 10.0833 20H10.9167C15.4342 20 17.6925 20 19.0967 18.5967C20.5 17.1933 20.5 14.9342 20.5 10.4167V9.58333C20.5 5.06583 20.5 2.80667 19.0967 1.40333ZM16.7525 14.1667H15.2942C14.7383 14.1667 14.575 13.7233 13.5858 12.7342C12.72 11.9 12.3492 11.7917 12.1333 11.7917C11.8392 11.7917 11.7517 11.875 11.7517 12.2917V13.5992C11.7517 13.9575 11.6375 14.1667 10.71 14.1667C9.165 14.1667 7.46667 13.2283 6.26083 11.4983C4.4525 8.96417 3.95833 7.04833 3.95833 6.6625C3.95833 6.44583 4.04167 6.25 4.45833 6.25H5.9175C6.29 6.25 6.43 6.41333 6.57 6.81667C7.28333 8.89417 8.48667 10.71 8.98083 10.71C9.16583 10.71 9.25083 10.6242 9.25083 10.1542V8.00667C9.19667 7.01833 8.67083 6.93667 8.67083 6.585C8.67083 6.4225 8.81 6.25 9.04167 6.25H11.3342C11.6433 6.25 11.7508 6.415 11.7508 6.78583V9.675C11.7508 9.98333 11.885 10.0917 11.9775 10.0917C12.1633 10.0917 12.3175 9.98333 12.6575 9.64333C13.7083 8.46917 14.45 6.66167 14.45 6.66167C14.5433 6.445 14.7133 6.24917 15.085 6.24917H16.5433C16.9842 6.24917 17.0775 6.47583 16.9842 6.785C16.7983 7.635 15.0217 10.1375 15.0217 10.1375C14.8667 10.385 14.805 10.5083 15.0217 10.7867C15.1767 11.0033 15.6858 11.4358 16.0258 11.8375C16.6525 12.5425 17.125 13.1367 17.2567 13.5467C17.3783 13.9583 17.1692 14.1667 16.7525 14.1667Z" fill="currentColor"/>
    </symbol>
    <symbol  xmlns="http://www.w3.org/2000/svg" viewBox="0 0 26 26" id="whatsapp">
        <path d="M13 0.15625C19.9038 0.15625 25.5 5.7525 25.5 12.6562C25.5 19.56 19.9038 25.1562 13 25.1562C10.791 25.1598 8.62084 24.5752 6.71252 23.4625L0.505018 25.1562L2.19502 18.9462C1.08138 17.0373 0.496327 14.8662 0.500017 12.6562C0.500017 5.7525 6.09627 0.15625 13 0.15625ZM8.74002 6.78125L8.49002 6.79125C8.32817 6.80111 8.16999 6.84363 8.02502 6.91625C7.88942 6.99304 7.76564 7.08903 7.65752 7.20125C7.50752 7.3425 7.42252 7.465 7.33127 7.58375C6.86892 8.18488 6.61998 8.92289 6.62377 9.68125C6.62627 10.2937 6.78627 10.89 7.03627 11.4475C7.54752 12.575 8.38877 13.7687 9.49877 14.875C9.76627 15.1412 10.0288 15.4088 10.3113 15.6575C11.6905 16.8718 13.3341 17.7475 15.1113 18.215L15.8213 18.3238C16.0525 18.3363 16.2838 18.3187 16.5163 18.3075C16.8803 18.2887 17.2358 18.1901 17.5575 18.0188C17.7212 17.9344 17.881 17.8427 18.0363 17.7437C18.0363 17.7437 18.09 17.7087 18.1925 17.6312C18.3613 17.5062 18.465 17.4175 18.605 17.2713C18.7088 17.1638 18.7988 17.0375 18.8675 16.8938C18.965 16.69 19.0625 16.3012 19.1025 15.9775C19.1325 15.73 19.1238 15.595 19.12 15.5113C19.115 15.3775 19.0038 15.2388 18.8825 15.18L18.155 14.8538C18.155 14.8538 17.0675 14.38 16.4025 14.0775C16.3329 14.0471 16.2584 14.0297 16.1825 14.0262C16.097 14.0175 16.0106 14.0271 15.9291 14.0545C15.8476 14.0819 15.7729 14.1264 15.71 14.185C15.7038 14.1825 15.62 14.2538 14.7163 15.3488C14.6644 15.4185 14.5929 15.4711 14.511 15.5001C14.4291 15.529 14.3404 15.5329 14.2563 15.5113C14.1748 15.4894 14.0951 15.4618 14.0175 15.4288C13.8625 15.3638 13.8088 15.3387 13.7025 15.2937C12.9851 14.9807 12.3209 14.5577 11.7338 14.04C11.5763 13.9025 11.43 13.7525 11.28 13.6075C10.7883 13.1365 10.3597 12.6038 10.005 12.0225L9.93127 11.9037C9.8783 11.824 9.83547 11.7379 9.80377 11.6475C9.75627 11.4637 9.88002 11.3163 9.88002 11.3163C9.88002 11.3163 10.1838 10.9837 10.325 10.8037C10.4625 10.6287 10.5788 10.4588 10.6538 10.3375C10.8013 10.1 10.8475 9.85625 10.77 9.6675C10.42 8.8125 10.0575 7.96125 9.68502 7.11625C9.61127 6.94875 9.39252 6.82875 9.19377 6.805C9.12627 6.7975 9.05877 6.79 8.99127 6.785C8.8234 6.77666 8.65519 6.77833 8.48752 6.79L8.74002 6.78125Z" fill="currentColor"/>
    </symbol>
    <symbol  xmlns="http://www.w3.org/2000/svg" viewBox="0 0 46 34" id="youtube">
        <path d="M18.4 24.0714L30.337 17L18.4 9.92857V24.0714ZM44.988 5.615C45.287 6.72286 45.494 8.20786 45.632 10.0936C45.793 11.9793 45.862 13.6057 45.862 15.02L46 17C46 22.1621 45.632 25.9571 44.988 28.385C44.413 30.5064 43.079 31.8736 41.009 32.4629C39.928 32.7693 37.95 32.9814 34.914 33.1229C31.924 33.2879 29.187 33.3586 26.657 33.3586L23 33.5C13.363 33.5 7.36 33.1229 4.991 32.4629C2.921 31.8736 1.587 30.5064 1.012 28.385C0.713 27.2771 0.506 25.7921 0.368 23.9064C0.207 22.0207 0.138 20.3943 0.138 18.98L0 17C0 11.8379 0.368 8.04286 1.012 5.615C1.587 3.49357 2.921 2.12643 4.991 1.53714C6.072 1.23071 8.05 1.01857 11.086 0.877143C14.076 0.712142 16.813 0.641428 19.343 0.641428L23 0.5C32.637 0.5 38.64 0.877143 41.009 1.53714C43.079 2.12643 44.413 3.49357 44.988 5.615Z" fill="currentColor"/>
    </symbol>
    <symbol xmlns="http://www.w3.org/2000/svg" id="eye">
        <path d="M13.8959 5.045C13.3837 3.97833 11.3752 0.5 7.0001 0.5C2.62499 0.5 0.616524 3.97833 0.104344 5.045C0.0355898 5.18795 0 5.34333 0 5.50056C0 5.65778 0.0355898 5.81317 0.104344 5.95611C0.616524 7.02167 2.62499 10.5 7.0001 10.5C11.3752 10.5 13.3837 7.02167 13.8959 5.955C13.9645 5.81222 14 5.65703 14 5.5C14 5.34297 13.9645 5.18778 13.8959 5.045ZM7.0001 8.83333C6.30785 8.83333 5.63115 8.63784 5.05556 8.27156C4.47997 7.90529 4.03136 7.3847 3.76644 6.77561C3.50153 6.16652 3.43222 5.4963 3.56727 4.8497C3.70232 4.2031 4.03567 3.60915 4.52517 3.14298C5.01466 2.6768 5.63832 2.35933 6.31727 2.23072C6.99622 2.1021 7.69997 2.16811 8.33953 2.4204C8.97909 2.67269 9.52573 3.09994 9.91032 3.6481C10.2949 4.19626 10.5002 4.84073 10.5002 5.5C10.4993 6.38378 10.1302 7.23112 9.47402 7.85605C8.81782 8.48098 7.9281 8.83245 7.0001 8.83333Z" stroke="none" fill="currentColor"/>
        <path d="M7.0001 7.72222C8.2888 7.72222 9.3335 6.7273 9.3335 5.5C9.3335 4.2727 8.2888 3.27778 7.0001 3.27778C5.71141 3.27778 4.66671 4.2727 4.66671 5.5C4.66671 6.7273 5.71141 7.72222 7.0001 7.72222Z" stroke="none" fill="currentColor"/>
    </symbol>
    <symbol xmlns="http://www.w3.org/2000/svg" viewBox="0 0 16 16" fill="none" id="reload">
        <path d="M1.2 0C1.0976 0 0.995588 0.0395875 0.917188 0.117188C0.761187 0.273187 0.761187 0.526812 0.917188 0.682813L2.475 2.24063C0.956018 3.69594 0 5.73481 0 8C0 12.4091 3.59093 16 8 16C12.4091 16 16 12.4091 16 8C16 3.89129 12.8852 0.494072 8.8875 0.0515625C8.86103 0.0486751 8.83444 0.0471106 8.80781 0.046875C8.60256 0.0448969 8.40439 0.121884 8.2543 0.261913C8.10422 0.401942 8.01369 0.594301 8.00145 0.799202C7.9892 1.0041 8.05618 1.20587 8.18853 1.36277C8.32088 1.51968 8.50847 1.61971 8.7125 1.64219C11.9132 1.99648 14.4 4.69751 14.4 8C14.4 11.5445 11.5445 14.4 8 14.4C4.45547 14.4 1.6 11.5445 1.6 8C1.6 6.16843 2.37401 4.53152 3.60313 3.36875L4.91719 4.68281C5.07319 4.83881 5.32681 4.83881 5.48281 4.68281C5.56121 4.60521 5.6 4.5024 5.6 4.4V0.8C5.6 0.587827 5.51571 0.384344 5.36569 0.234315C5.21566 0.0842854 5.01217 0 4.8 0H1.2Z" fill="white" />
    </symbol>
    <symbol xmlns="http://www.w3.org/2000/svg" viewBox="0 0 24 24" id="place">
        <path d="M12 12C10.9 12 10 11.1 10 10C10 8.9 10.9 8 12 8C13.1 8 14 8.9 14 10C14 11.1 13.1 12 12 12ZM18 10.2C18 6.57 15.35 4 12 4C8.65 4 6 6.57 6 10.2C6 12.54 7.95 15.64 12 19.34C16.05 15.64 18 12.54 18 10.2ZM12 2C16.2 2 20 5.22 20 10.2C20 13.52 17.33 17.45 12 22C6.67 17.45 4 13.52 4 10.2C4 5.22 7.8 2 12 2Z" fill="currentColor" stroke="none"/>
    </symbol>
</svg>