<svg width="0" height="0" class="hidden">
    <symbol xmlns="http://www.w3.org/2000/svg" viewBox="0 0 78 16" id="arrow">
        <path d="M0.292895 8.36434C-0.0976291 7.97382 -0.0976292 7.34065 0.292895 6.95013L6.65686 0.586165C7.04738 0.195641 7.68054 0.195641 8.07107 0.586165C8.46159 0.976689 8.46159 1.60985 8.07107 2.00038L2.41422 7.65723L8.07107 13.3141C8.46159 13.7046 8.46159 14.3378 8.07107 14.7283C7.68055 15.1188 7.04738 15.1188 6.65686 14.7283L0.292895 8.36434ZM78 7.65723L78 8.65723L1 8.65723L1 7.65723L1 6.65723L78 6.65723L78 7.65723Z" fill="currentColor"/>
    </symbol>
    <symbol xmlns="http://www.w3.org/2000/svg" id="burger" viewBox="0 0 39 13" fill="none">
        <line x1="39" y1="0.5" x2="4.37114e-08" y2="0.500003" stroke="white"/>
        <line x1="39" y1="6.5" x2="10" y2="6.5" stroke="white"/>
        <line x1="39" y1="12.5" x2="20" y2="12.5" stroke="white"/>
    </symbol>
    <symbol  xmlns="http://www.w3.org/2000/svg" viewBox="0 0 18 13" id="check">
        <path d="M6.5501 12.9996L0.850098 7.29961L2.2751 5.87461L6.5501 10.1496L15.7251 0.974609L17.1501 2.39961L6.5501 12.9996Z" fill="currentColor"/>
    </symbol>
    <symbol  xmlns="http://www.w3.org/2000/svg" viewBox="0 0 24 24" id="chevron" fill="none">
        <path d="M6 9L12 15L18 9" stroke="currentColor" stroke-width="2" stroke-linecap="round" stroke-linejoin="round"/>
    </symbol>
    <symbol xmlns="http://www.w3.org/2000/svg" viewBox="0 0 20 20" id="close">
        <path d="M2.06634 19.9163L0.0830078 17.933L8.01634 9.99967L0.0830078 2.06634L2.06634 0.0830078L9.99967 8.01634L17.933 0.0830078L19.9163 2.06634L11.983 9.99967L19.9163 17.933L17.933 19.9163L9.99967 11.983L2.06634 19.9163Z" fill="currentColor"/>
    </symbol>
    <symbol  xmlns="http://www.w3.org/2000/svg" viewBox="0 0 20 20" id="search">
        <path fill-rule="evenodd" clip-rule="evenodd" d="M8.50001 1.91687e-08C7.1446 0.000115492 5.80887 0.324364 4.60427 0.945694C3.39966 1.56702 2.3611 2.46742 1.57525 3.57175C0.789389 4.67609 0.279019 5.95235 0.0867177 7.29404C-0.105584 8.63574 0.0257587 10.004 0.469788 11.2846C0.913817 12.5652 1.65766 13.7211 2.63925 14.6557C3.62084 15.5904 4.81171 16.2768 6.11252 16.6576C7.41333 17.0384 8.78635 17.1026 10.117 16.8449C11.4477 16.5872 12.6975 16.015 13.762 15.176L17.414 18.828C17.6026 19.0102 17.8552 19.111 18.1174 19.1087C18.3796 19.1064 18.6304 19.0012 18.8158 18.8158C19.0012 18.6304 19.1064 18.3796 19.1087 18.1174C19.111 17.8552 19.0102 17.6026 18.828 17.414L15.176 13.762C16.164 12.5086 16.7792 11.0024 16.9511 9.41573C17.123 7.82905 16.8448 6.22602 16.1482 4.79009C15.4517 3.35417 14.3649 2.14336 13.0123 1.29623C11.6597 0.449106 10.096 -0.000107143 8.50001 1.91687e-08ZM2.00001 8.5C2.00001 6.77609 2.68483 5.12279 3.90382 3.90381C5.1228 2.68482 6.7761 2 8.50001 2C10.2239 2 11.8772 2.68482 13.0962 3.90381C14.3152 5.12279 15 6.77609 15 8.5C15 10.2239 14.3152 11.8772 13.0962 13.0962C11.8772 14.3152 10.2239 15 8.50001 15C6.7761 15 5.1228 14.3152 3.90382 13.0962C2.68483 11.8772 2.00001 10.2239 2.00001 8.5Z" fill="currentColor"/>
    </symbol>

    <symbol viewBox="0 0 32 40" fill="none" xmlns="http://www.w3.org/2000/svg" id="marker">
        <path fill-rule="evenodd" clip-rule="evenodd" d="M14.8408 37.9046C15.6163 37.9046 29.4741 23.0983 29.4741 15.0166C29.4741 6.93483 22.9225 0.383301 14.8408 0.383301C6.75905 0.383301 0.20752 6.93483 0.20752 15.0166C0.20752 23.0983 14.0652 37.9046 14.8408 37.9046ZM14.8408 22.3356C18.9382 22.3356 22.2599 19.0139 22.2599 14.9165C22.2599 10.8191 18.9382 7.49742 14.8408 7.49742C10.7434 7.49742 7.42174 10.8191 7.42174 14.9165C7.42174 19.0139 10.7434 22.3356 14.8408 22.3356Z" fill="#D55751"/>
        <path fill-rule="evenodd" clip-rule="evenodd" d="M0.20752 15.0166C0.20752 23.0983 14.0652 37.9046 14.8408 37.9046V22.3356C10.7434 22.3354 7.42174 19.0139 7.42174 14.9165C7.42174 10.8191 10.7434 7.49744 14.8408 7.49742V0.383301C6.75905 0.383301 0.20752 6.93483 0.20752 15.0166Z" fill="#D55751"/>
    </symbol>

    <symbol xmlns="http://www.w3.org/2000/svg" viewBox="0 0 18 22" id="scroll">
        <path d="M14.3807 8.65568L8.9967 7.60923V3.17053C9.0052 2.53774 8.78436 1.92222 8.37285 1.43176C7.96133 0.9413 7.38539 0.607169 6.74588 0.487886C6.3585 0.424252 5.96151 0.44351 5.58258 0.544314C5.20365 0.645119 4.85192 0.825044 4.5519 1.07154C4.25188 1.31804 4.01081 1.62517 3.84549 1.97153C3.68017 2.31788 3.59459 2.69511 3.59472 3.07691V8.90505L1.0837 12.089C0.347223 12.9267 -0.0384878 14.0027 0.00303562 15.1038C0.0445591 16.2048 0.510285 17.2505 1.30788 18.0336L3.46867 20.1553C4.31655 20.9821 5.46735 21.4482 6.66845 21.4512H13.4984C14.6918 21.4498 15.836 20.9884 16.6799 20.1683C17.5238 19.3481 17.9986 18.2362 18 17.0763V12.9456C17.9978 11.9348 17.6364 10.9557 16.9768 10.174C16.3173 9.39225 15.4002 8.85592 14.3807 8.65568ZM16.1993 17.0763C16.1993 17.7725 15.9148 18.4402 15.4082 18.9324C14.9017 19.4247 14.2147 19.7012 13.4984 19.7012H6.66845C5.94698 19.6992 5.25589 19.4188 4.74714 18.9216L2.58635 16.7972C2.10352 16.3198 1.82439 15.6826 1.80502 15.0134C1.78565 14.3443 2.02746 13.6928 2.48191 13.1898L3.59472 11.7784V15.3264C3.59472 15.5585 3.68958 15.781 3.85842 15.9451C4.02727 16.1092 4.25627 16.2014 4.49505 16.2014C4.73383 16.2014 4.96284 16.1092 5.13168 15.9451C5.30052 15.781 5.39538 15.5585 5.39538 15.3264V3.07691C5.3953 2.94892 5.42411 2.82247 5.47979 2.70649C5.53546 2.5905 5.61664 2.48779 5.7176 2.40561C5.81856 2.32343 5.93685 2.26377 6.06411 2.23085C6.19138 2.19793 6.32453 2.19254 6.45417 2.21507C6.67215 2.26691 6.86502 2.39031 7.0002 2.5644C7.13537 2.73849 7.20455 2.95259 7.19604 3.17053V8.3267C7.196 8.5284 7.26767 8.72393 7.39892 8.88018C7.53017 9.03644 7.71294 9.14382 7.9163 9.18416L14.0241 10.3715C14.6364 10.4913 15.1873 10.8129 15.5837 11.2819C15.98 11.751 16.1975 12.3387 16.1993 12.9456V17.0763Z" fill="currentColor"/>
    </symbol>
</svg>